<?xml version="1.0" encoding="UTF-8"?>
<svg width="36px" height="30px" viewBox="0 0 36 30" version="1.1" xmlns="http://www.w3.org/2000/svg" xmlns:xlink="http://www.w3.org/1999/xlink">
    <!-- Generator: Sketch 52.1 (67048) - http://www.bohemiancoding.com/sketch -->
    <title>icon_RoomSize</title>
    <desc>Created with Sketch.</desc>
    <g id="Meeting_v03" stroke="none" stroke-width="1" fill="none" fill-rule="evenodd" stroke-linecap="round" stroke-linejoin="round">
        <g id="01_Standby" transform="translate(-821.000000, -90.000000)" stroke="#FFFFFF" stroke-width="2">
            <g id="Group-5" transform="translate(383.000000, 71.000000)">
                <g id="icon_RoomSize" transform="translate(439.000000, 20.000000)">
                    <path d="M18.421,27.6598 C18.421,18.5338 9.461,11.1358 9.461,11.1358 C9.461,11.1358 0.5,18.5338 0.5,27.6598 L18.421,27.6598 Z" id="Stroke-1"></path>
                    <path d="M14.7784,5.818 C14.7784,2.88 12.3974,0.5 9.4614,0.5 C6.5234,0.5 4.1424,2.88 4.1424,5.818 C4.1424,8.755 6.5234,11.135 9.4614,11.135 C12.3974,11.135 14.7784,8.755 14.7784,5.818 Z" id="Stroke-3"></path>
                    <path d="M18.5893555,27.6598 C21.8852765,27.6598 26.829158,27.6598 33.421,27.6598 C33.421,18.5338 24.461,11.1358 24.461,11.1358 C24.461,11.1358 19.5769045,15.1679994 17.0202529,20.9508766" id="Stroke-1"></path>
                    <path d="M29.7784,5.818 C29.7784,2.88 27.3974,0.5 24.4614,0.5 C21.5234,0.5 19.1424,2.88 19.1424,5.818 C19.1424,8.755 21.5234,11.135 24.4614,11.135 C27.3974,11.135 29.7784,8.755 29.7784,5.818 Z" id="Stroke-3"></path>
                </g>
            </g>
        </g>
    </g>
</svg>